<svg width="1705" height="853" xmlns="http://www.w3.org/2000/svg" xmlns:xlink="http://www.w3.org/1999/xlink" overflow="hidden"><defs><clipPath id="clip0"><rect x="1691" y="1067" width="1705" height="853"/></clipPath><clipPath id="clip1"><rect x="1695" y="1069" width="1697" height="849"/></clipPath><clipPath id="clip2"><rect x="1695" y="1069" width="1697" height="849"/></clipPath><clipPath id="clip3"><rect x="1695" y="1069" width="1697" height="849"/></clipPath><clipPath id="clip4"><rect x="1695" y="1069" width="1697" height="849"/></clipPath><clipPath id="clip5"><rect x="1695" y="1069" width="1697" height="849"/></clipPath><clipPath id="clip6"><rect x="1805" y="1239" width="1516" height="572"/></clipPath><clipPath id="clip7"><rect x="1695" y="1069" width="1697" height="849"/></clipPath><clipPath id="clip8"><rect x="1695" y="1069" width="1697" height="849"/></clipPath><clipPath id="clip9"><rect x="1695" y="1069" width="1697" height="849"/></clipPath><clipPath id="clip10"><rect x="1695" y="1069" width="1697" height="849"/></clipPath><clipPath id="clip11"><rect x="1695" y="1069" width="1697" height="849"/></clipPath><clipPath id="clip12"><rect x="1695" y="1069" width="1697" height="849"/></clipPath><clipPath id="clip13"><rect x="1695" y="1069" width="1697" height="849"/></clipPath><clipPath id="clip14"><rect x="1695" y="1069" width="1697" height="849"/></clipPath><clipPath id="clip15"><rect x="1695" y="1069" width="1697" height="849"/></clipPath><clipPath id="clip16"><rect x="1695" y="1069" width="1697" height="849"/></clipPath><clipPath id="clip17"><rect x="1695" y="1069" width="1697" height="849"/></clipPath><clipPath id="clip18"><rect x="1695" y="1069" width="1697" height="849"/></clipPath><clipPath id="clip19"><rect x="1695" y="1069" width="1697" height="849"/></clipPath><clipPath id="clip20"><rect x="1695" y="1069" width="1697" height="849"/></clipPath><clipPath id="clip21"><rect x="1695" y="1069" width="1697" height="849"/></clipPath><clipPath id="clip22"><rect x="1695" y="1069" width="1697" height="849"/></clipPath><clipPath id="clip23"><rect x="1695" y="1069" width="1697" height="849"/></clipPath><clipPath id="clip24"><rect x="1695" y="1069" width="1697" height="849"/></clipPath><clipPath id="clip25"><rect x="1695" y="1069" width="1697" height="849"/></clipPath><clipPath id="clip26"><rect x="1695" y="1069" width="1697" height="849"/></clipPath><clipPath id="clip27"><rect x="1695" y="1069" width="1697" height="849"/></clipPath></defs><g clip-path="url(#clip0)" transform="translate(-1691 -1067)"><rect x="1696" y="1069" width="1697" height="849" fill="#FFFFFF" fill-opacity="1"/><g clip-path="url(#clip1)"><path d="M1805.5 1754.56 3321.5 1754.56M1805.5 1697.56 3321.5 1697.56M1805.5 1639.55 3321.5 1639.55M1805.5 1582.55 3321.5 1582.55M1805.5 1525.55 3321.5 1525.55M1805.5 1468.55 3321.5 1468.55M1805.5 1410.55 3321.5 1410.55M1805.5 1353.54 3321.5 1353.54M1805.5 1296.54 3321.5 1296.54M1805.5 1239.5 3321.5 1239.5" stroke="#D9D9D9" stroke-width="3.4375" stroke-linecap="butt" stroke-linejoin="round" stroke-miterlimit="10" stroke-opacity="1" fill="none" fill-rule="nonzero"/></g><g clip-path="url(#clip2)"><path d="M2022.57 1239.5 2022.57 1811.5M2238.57 1239.5 2238.57 1811.5M2455.58 1239.5 2455.58 1811.5M2671.59 1239.5 2671.59 1811.5M2888.59 1239.5 2888.59 1811.5M3104.6 1239.5 3104.6 1811.5M3321.5 1239.5 3321.5 1811.5" stroke="#D9D9D9" stroke-width="3.4375" stroke-linecap="butt" stroke-linejoin="round" stroke-miterlimit="10" stroke-opacity="1" fill="none" fill-rule="nonzero"/></g><g clip-path="url(#clip3)"><path d="M0 0 0.000360892 572" stroke="#BFBFBF" stroke-width="3.4375" stroke-linecap="butt" stroke-linejoin="round" stroke-miterlimit="10" stroke-opacity="1" fill="none" fill-rule="evenodd" transform="matrix(1 0 0 -1 1805.5 1811.5)"/></g><g clip-path="url(#clip4)"><path d="M1805.5 1811.5 3321.5 1811.5" stroke="#BFBFBF" stroke-width="3.4375" stroke-linecap="butt" stroke-linejoin="round" stroke-miterlimit="10" stroke-opacity="1" fill="none" fill-rule="evenodd"/></g><g clip-path="url(#clip5)"><path d="M2321.33 1319.56C2321.33 1325.64 2316.41 1330.56 2310.33 1330.56 2304.26 1330.56 2299.33 1325.64 2299.33 1319.56 2299.33 1313.49 2304.26 1308.56 2310.33 1308.56 2316.41 1308.56 2321.33 1313.49 2321.33 1319.56Z" stroke="#4472C4" stroke-width="3.4375" stroke-linecap="butt" stroke-linejoin="round" stroke-miterlimit="10" stroke-opacity="1" fill="#4472C4" fill-rule="nonzero" fill-opacity="1"/><path d="M2433.33 1319.56C2433.33 1325.64 2428.41 1330.56 2422.33 1330.56 2416.26 1330.56 2411.33 1325.64 2411.33 1319.56 2411.33 1313.49 2416.26 1308.56 2422.33 1308.56 2428.41 1308.56 2433.33 1313.49 2433.33 1319.56Z" stroke="#4472C4" stroke-width="3.4375" stroke-linecap="butt" stroke-linejoin="round" stroke-miterlimit="10" stroke-opacity="1" fill="#4472C4" fill-rule="nonzero" fill-opacity="1"/><path d="M2523.33 1319.56C2523.33 1325.64 2518.41 1330.56 2512.33 1330.56 2506.26 1330.56 2501.33 1325.64 2501.33 1319.56 2501.33 1313.49 2506.26 1308.56 2512.33 1308.56 2518.41 1308.56 2523.33 1313.49 2523.33 1319.56Z" stroke="#4472C4" stroke-width="3.4375" stroke-linecap="butt" stroke-linejoin="round" stroke-miterlimit="10" stroke-opacity="1" fill="#4472C4" fill-rule="nonzero" fill-opacity="1"/><path d="M2547.33 1363.56C2547.33 1369.64 2542.41 1374.56 2536.33 1374.56 2530.26 1374.56 2525.33 1369.64 2525.33 1363.56 2525.33 1357.49 2530.26 1352.56 2536.33 1352.56 2542.41 1352.56 2547.33 1357.49 2547.33 1363.56Z" stroke="#4472C4" stroke-width="3.4375" stroke-linecap="butt" stroke-linejoin="round" stroke-miterlimit="10" stroke-opacity="1" fill="#4472C4" fill-rule="nonzero" fill-opacity="1"/><path d="M2654.33 1274.56C2654.33 1280.64 2649.41 1285.56 2643.33 1285.56 2637.26 1285.56 2632.33 1280.64 2632.33 1274.56 2632.33 1268.49 2637.26 1263.56 2643.33 1263.56 2649.41 1263.56 2654.33 1268.49 2654.33 1274.56Z" stroke="#4472C4" stroke-width="3.4375" stroke-linecap="butt" stroke-linejoin="round" stroke-miterlimit="10" stroke-opacity="1" fill="#4472C4" fill-rule="nonzero" fill-opacity="1"/><path d="M2847.33 1329.56C2847.33 1335.64 2842.41 1340.56 2836.33 1340.56 2830.26 1340.56 2825.33 1335.64 2825.33 1329.56 2825.33 1323.49 2830.26 1318.56 2836.33 1318.56 2842.41 1318.56 2847.33 1323.49 2847.33 1329.56Z" stroke="#4472C4" stroke-width="3.4375" stroke-linecap="butt" stroke-linejoin="round" stroke-miterlimit="10" stroke-opacity="1" fill="#4472C4" fill-rule="nonzero" fill-opacity="1"/><path d="M2678.33 1271.56C2678.33 1277.64 2673.41 1282.56 2667.33 1282.56 2661.26 1282.56 2656.33 1277.64 2656.33 1271.56 2656.33 1265.49 2661.26 1260.56 2667.33 1260.56 2673.41 1260.56 2678.33 1265.49 2678.33 1271.56Z" stroke="#4472C4" stroke-width="3.4375" stroke-linecap="butt" stroke-linejoin="round" stroke-miterlimit="10" stroke-opacity="1" fill="#4472C4" fill-rule="nonzero" fill-opacity="1"/><path d="M3112.33 1395.56C3112.33 1401.64 3107.41 1406.56 3101.33 1406.56 3095.26 1406.56 3090.33 1401.64 3090.33 1395.56 3090.33 1389.49 3095.26 1384.56 3101.33 1384.56 3107.41 1384.56 3112.33 1389.49 3112.33 1395.56Z" stroke="#4472C4" stroke-width="3.4375" stroke-linecap="butt" stroke-linejoin="round" stroke-miterlimit="10" stroke-opacity="1" fill="#4472C4" fill-rule="nonzero" fill-opacity="1"/><path d="M2976.33 1363.56C2976.33 1369.64 2971.41 1374.56 2965.33 1374.56 2959.26 1374.56 2954.33 1369.64 2954.33 1363.56 2954.33 1357.49 2959.26 1352.56 2965.33 1352.56 2971.41 1352.56 2976.33 1357.49 2976.33 1363.56Z" stroke="#4472C4" stroke-width="3.4375" stroke-linecap="butt" stroke-linejoin="round" stroke-miterlimit="10" stroke-opacity="1" fill="#4472C4" fill-rule="nonzero" fill-opacity="1"/></g><g clip-path="url(#clip6)"><path d="M2309.01 1375.45 2309.01 1375.45C2310.72 1374.62 2312.78 1375.34 2313.6 1377.05 2314.43 1378.76 2313.71 1380.82 2312 1381.64L2311.99 1381.64C2310.28 1382.47 2308.23 1381.75 2307.4 1380.04 2306.58 1378.33 2307.3 1376.27 2309.01 1375.45ZM2321.23 1369.88 2321.23 1369.87C2322.93 1369.02 2325 1369.71 2325.85 1371.41 2326.7 1373.11 2326.01 1375.17 2324.31 1376.02L2324.3 1376.03C2322.6 1376.87 2320.54 1376.19 2319.69 1374.49 2318.84 1372.79 2319.53 1370.72 2321.23 1369.88ZM2333.37 1363.8 2333.38 1363.8C2335.08 1362.95 2337.14 1363.64 2337.99 1365.34 2338.84 1367.04 2338.15 1369.1 2336.45 1369.95L2336.45 1369.95C2334.75 1370.8 2332.68 1370.11 2331.84 1368.41 2330.99 1366.72 2331.68 1364.65 2333.37 1363.8ZM2345.62 1358.18 2345.63 1358.17C2347.33 1357.33 2349.39 1358.01 2350.24 1359.71 2351.09 1361.41 2350.4 1363.48 2348.7 1364.32L2348.7 1364.33C2347 1365.18 2344.94 1364.49 2344.09 1362.79 2343.24 1361.09 2343.93 1359.03 2345.62 1358.18ZM2357.88 1352.55 2357.88 1352.55C2359.58 1351.7 2361.65 1352.39 2362.49 1354.09 2363.34 1355.79 2362.65 1357.85 2360.95 1358.7L2360.95 1358.7C2359.25 1359.55 2357.19 1358.86 2356.34 1357.16 2355.49 1355.47 2356.18 1353.4 2357.88 1352.55ZM2370.23 1347.37 2370.24 1347.37C2371.94 1346.52 2374 1347.21 2374.85 1348.91 2375.7 1350.61 2375.01 1352.67 2373.31 1353.52L2373.31 1353.52C2371.61 1354.37 2369.54 1353.68 2368.69 1351.99 2367.84 1350.29 2368.53 1348.22 2370.23 1347.37ZM2384.19 1342.11 2384.2 1342.11C2386.09 1342.11 2387.63 1343.65 2387.63 1345.54 2387.63 1347.44 2386.09 1348.98 2384.2 1348.98L2384.19 1348.98C2382.29 1348.98 2380.75 1347.44 2380.75 1345.54 2380.75 1343.65 2382.29 1342.11 2384.19 1342.11ZM2395.05 1337.47 2395.06 1337.46C2396.75 1336.61 2398.82 1337.3 2399.67 1339 2400.52 1340.7 2399.83 1342.76 2398.13 1343.61L2398.12 1343.61C2396.43 1344.46 2394.36 1343.78 2393.51 1342.08 2392.66 1340.38 2393.35 1338.31 2395.05 1337.47ZM2407.51 1332.73 2407.52 1332.73C2409.22 1331.88 2411.28 1332.57 2412.13 1334.27 2412.98 1335.97 2412.29 1338.03 2410.59 1338.88L2410.59 1338.88C2408.89 1339.73 2406.82 1339.04 2405.97 1337.35 2405.12 1335.65 2405.81 1333.58 2407.51 1332.73ZM2419.97 1328 2419.98 1328C2421.68 1327.15 2423.74 1327.84 2424.59 1329.54 2425.44 1331.24 2424.75 1333.3 2423.05 1334.15L2423.05 1334.15C2421.35 1335 2419.29 1334.31 2418.44 1332.62 2417.59 1330.92 2418.28 1328.85 2419.97 1328ZM2432.7 1323.64 2432.71 1323.64C2434.4 1322.79 2436.47 1323.48 2437.32 1325.17 2438.17 1326.87 2437.48 1328.94 2435.78 1329.79L2435.77 1329.79C2434.08 1330.64 2432.01 1329.95 2431.16 1328.25 2430.31 1326.55 2431 1324.49 2432.7 1323.64ZM2445.53 1319.72 2445.54 1319.72C2447.24 1318.87 2449.3 1319.56 2450.15 1321.26 2451 1322.96 2450.31 1325.02 2448.61 1325.87L2448.61 1325.87C2446.91 1326.72 2444.84 1326.03 2444 1324.34 2443.15 1322.64 2443.83 1320.57 2445.53 1319.72ZM2459.82 1315.11 2459.83 1315.11C2461.73 1315.11 2463.27 1316.65 2463.27 1318.54 2463.27 1320.44 2461.73 1321.98 2459.83 1321.98L2459.82 1321.98C2457.92 1321.98 2456.38 1320.44 2456.38 1318.54 2456.38 1316.65 2457.92 1315.11 2459.82 1315.11ZM2471.14 1312.42 2471.15 1312.42C2472.85 1311.57 2474.91 1312.26 2475.76 1313.95 2476.61 1315.65 2475.92 1317.72 2474.22 1318.57L2474.22 1318.57C2472.52 1319.42 2470.46 1318.73 2469.61 1317.03 2468.76 1315.33 2469.45 1313.27 2471.14 1312.42ZM2485.33 1308.11 2485.33 1308.11C2487.23 1308.11 2488.77 1309.64 2488.77 1311.54 2488.77 1313.44 2487.23 1314.98 2485.33 1314.98L2485.33 1314.98C2483.43 1314.98 2481.89 1313.44 2481.89 1311.54 2481.89 1309.64 2483.43 1308.11 2485.33 1308.11ZM2498.2 1305.11 2498.2 1305.11C2500.1 1305.11 2501.64 1306.64 2501.64 1308.54 2501.64 1310.44 2500.1 1311.98 2498.2 1311.98L2498.2 1311.98C2496.3 1311.98 2494.76 1310.44 2494.76 1308.54 2494.76 1306.64 2496.3 1305.11 2498.2 1305.11ZM2511.25 1302.11 2511.25 1302.11C2513.15 1302.11 2514.69 1303.64 2514.69 1305.54 2514.69 1307.44 2513.15 1308.98 2511.25 1308.98L2511.25 1308.98C2509.35 1308.98 2507.81 1307.44 2507.81 1305.54 2507.81 1303.64 2509.35 1302.11 2511.25 1302.11ZM2522.79 1299.6 2522.8 1299.59C2524.49 1298.75 2526.56 1299.43 2527.41 1301.13 2528.25 1302.83 2527.57 1304.9 2525.87 1305.74L2525.86 1305.75C2524.16 1306.6 2522.1 1305.91 2521.25 1304.21 2520.4 1302.51 2521.09 1300.44 2522.79 1299.6ZM2537.4 1297.11 2537.41 1297.11C2539.31 1297.11 2540.85 1298.64 2540.85 1300.54 2540.85 1302.44 2539.31 1303.98 2537.41 1303.98L2537.4 1303.98C2535.5 1303.98 2533.96 1302.44 2533.96 1300.54 2533.96 1298.64 2535.5 1297.11 2537.4 1297.11ZM2549.03 1294.97 2549.04 1294.97C2550.74 1294.12 2552.8 1294.81 2553.65 1296.51 2554.5 1298.21 2553.81 1300.27 2552.11 1301.12L2552.11 1301.13C2550.41 1301.97 2548.34 1301.28 2547.49 1299.59 2546.65 1297.89 2547.34 1295.82 2549.03 1294.97ZM2562.13 1292.93 2562.14 1292.92C2563.83 1292.08 2565.9 1292.77 2566.75 1294.46 2567.59 1296.16 2566.91 1298.23 2565.21 1299.07L2565.2 1299.08C2563.5 1299.93 2561.44 1299.24 2560.59 1297.54 2559.74 1295.84 2560.43 1293.77 2562.13 1292.93ZM2575.49 1291.25 2575.5 1291.24C2577.19 1290.4 2579.26 1291.09 2580.11 1292.78 2580.96 1294.48 2580.27 1296.55 2578.57 1297.39L2578.56 1297.4C2576.86 1298.25 2574.8 1297.56 2573.95 1295.86 2573.1 1294.16 2573.79 1292.09 2575.49 1291.25ZM2590.36 1289.11 2590.37 1289.11C2592.27 1289.11 2593.81 1290.64 2593.81 1292.54 2593.81 1294.44 2592.27 1295.98 2590.37 1295.98L2590.36 1295.98C2588.46 1295.98 2586.92 1294.44 2586.92 1292.54 2586.92 1290.64 2588.46 1289.11 2590.36 1289.11ZM2602.32 1288.33 2602.32 1288.33C2604.02 1287.48 2606.08 1288.17 2606.93 1289.87 2607.78 1291.57 2607.09 1293.63 2605.39 1294.48L2605.39 1294.48C2603.69 1295.33 2601.62 1294.64 2600.78 1292.95 2599.93 1291.25 2600.62 1289.18 2602.32 1288.33ZM2615.78 1287.1 2615.79 1287.1C2617.49 1286.25 2619.55 1286.94 2620.4 1288.64 2621.25 1290.34 2620.56 1292.4 2618.86 1293.25L2618.85 1293.25C2617.15 1294.1 2615.09 1293.41 2614.24 1291.71 2613.39 1290.01 2614.08 1287.95 2615.78 1287.1ZM2630.92 1286.1 2630.93 1286.1C2632.83 1286.1 2634.37 1287.64 2634.37 1289.54 2634.37 1291.44 2632.83 1292.98 2630.93 1292.98L2630.92 1292.98C2629.03 1292.98 2627.49 1291.44 2627.49 1289.54 2627.49 1287.64 2629.03 1286.1 2630.92 1286.1ZM2644.45 1285.1 2644.45 1285.1C2646.35 1285.1 2647.89 1286.64 2647.89 1288.54 2647.89 1290.44 2646.35 1291.98 2644.45 1291.98L2644.45 1291.98C2642.55 1291.98 2641.01 1290.44 2641.01 1288.54 2641.01 1286.64 2642.55 1285.1 2644.45 1285.1ZM2658.2 1285.1 2658.21 1285.1C2660.11 1285.1 2661.65 1286.64 2661.65 1288.54 2661.65 1290.44 2660.11 1291.98 2658.21 1291.98L2658.2 1291.98C2656.3 1291.98 2654.76 1290.44 2654.76 1288.54 2654.76 1286.64 2656.3 1285.1 2658.2 1285.1ZM2671.96 1285.1 2671.97 1285.1C2673.86 1285.1 2675.4 1286.64 2675.4 1288.54 2675.4 1290.44 2673.86 1291.98 2671.97 1291.98L2671.96 1291.98C2670.06 1291.98 2668.52 1290.44 2668.52 1288.54 2668.52 1286.64 2670.06 1285.1 2671.96 1285.1ZM2685.72 1285.1 2685.72 1285.1C2687.62 1285.1 2689.16 1286.64 2689.16 1288.54 2689.16 1290.44 2687.62 1291.98 2685.72 1291.98L2685.72 1291.98C2683.82 1291.98 2682.28 1290.44 2682.28 1288.54 2682.28 1286.64 2683.82 1285.1 2685.72 1285.1ZM2699.47 1285.1 2699.48 1285.1C2701.38 1285.1 2702.92 1286.64 2702.92 1288.54 2702.92 1290.44 2701.38 1291.98 2699.48 1291.98L2699.47 1291.98C2697.57 1291.98 2696.03 1290.44 2696.03 1288.54 2696.03 1286.64 2697.57 1285.1 2699.47 1285.1ZM2712.99 1286.1 2713 1286.1C2714.9 1286.1 2716.44 1287.64 2716.44 1289.54 2716.44 1291.44 2714.9 1292.98 2713 1292.98L2712.99 1292.98C2711.09 1292.98 2709.56 1291.44 2709.56 1289.54 2709.56 1287.64 2711.09 1286.1 2712.99 1286.1ZM2726.51 1287.1 2726.52 1287.1C2728.42 1287.1 2729.96 1288.64 2729.96 1290.54 2729.96 1292.44 2728.42 1293.98 2726.52 1293.98L2726.51 1293.98C2724.61 1293.98 2723.08 1292.44 2723.08 1290.54 2723.08 1288.64 2724.61 1287.1 2726.51 1287.1ZM2740.03 1288.11 2740.04 1288.11C2741.94 1288.11 2743.48 1289.64 2743.48 1291.54 2743.48 1293.44 2741.94 1294.98 2740.04 1294.98L2740.03 1294.98C2738.14 1294.98 2736.6 1293.44 2736.6 1291.54 2736.6 1289.64 2738.14 1288.11 2740.03 1288.11ZM2752.96 1290.11 2752.97 1290.11C2754.87 1290.11 2756.41 1291.64 2756.41 1293.54 2756.41 1295.44 2754.87 1296.98 2752.97 1296.98L2752.96 1296.98C2751.06 1296.98 2749.53 1295.44 2749.53 1293.54 2749.53 1291.64 2751.06 1290.11 2752.96 1290.11ZM2766.48 1291.11 2766.49 1291.11C2768.39 1291.11 2769.93 1292.64 2769.93 1294.54 2769.93 1296.44 2768.39 1297.98 2766.49 1297.98L2766.48 1297.98C2764.59 1297.98 2763.05 1296.44 2763.05 1294.54 2763.05 1292.64 2764.59 1291.11 2766.48 1291.11ZM2781.29 1293.55 2781.3 1293.55C2782.99 1294.4 2783.68 1296.47 2782.83 1298.17 2781.98 1299.86 2779.91 1300.55 2778.22 1299.7L2778.21 1299.7C2776.51 1298.84 2775.83 1296.78 2776.68 1295.08 2777.53 1293.38 2779.59 1292.7 2781.29 1293.55ZM2794.39 1295.6 2794.39 1295.6C2796.09 1296.45 2796.77 1298.52 2795.92 1300.21 2795.07 1301.91 2793.01 1302.6 2791.31 1301.75L2791.3 1301.74C2789.61 1300.89 2788.92 1298.83 2789.77 1297.13 2790.62 1295.43 2792.69 1294.75 2794.39 1295.6ZM2805.92 1298.11 2805.93 1298.11C2807.83 1298.11 2809.37 1299.64 2809.37 1301.54 2809.37 1303.44 2807.83 1304.98 2805.93 1304.98L2805.92 1304.98C2804.03 1304.98 2802.49 1303.44 2802.49 1301.54 2802.49 1299.64 2804.03 1298.11 2805.92 1298.11ZM2820.42 1301.11 2820.42 1301.12C2822.12 1301.97 2822.81 1304.03 2821.96 1305.73 2821.11 1307.43 2819.04 1308.11 2817.34 1307.26L2817.34 1307.26C2815.64 1306.41 2814.95 1304.34 2815.81 1302.65 2816.66 1300.95 2818.72 1300.26 2820.42 1301.11ZM2831.9 1303.11 2831.91 1303.11C2833.81 1303.11 2835.34 1304.64 2835.34 1306.54 2835.34 1308.44 2833.81 1309.98 2831.91 1309.98L2831.9 1309.98C2830 1309.98 2828.46 1308.44 2828.46 1306.54 2828.46 1304.64 2830 1303.11 2831.9 1303.11ZM2844.59 1306.11 2844.59 1306.11C2845.13 1306.11 2845.65 1306.23 2846.13 1306.47L2846.13 1306.47C2847.83 1307.32 2848.52 1309.38 2847.68 1311.08 2846.83 1312.78 2844.76 1313.47 2843.07 1312.62L2843.06 1312.62 2844.59 1312.98 2844.59 1312.98C2842.69 1312.98 2841.16 1311.44 2841.16 1309.54 2841.16 1307.64 2842.69 1306.11 2844.59 1306.11ZM2858.97 1310.39 2858.97 1310.39C2860.67 1311.24 2861.36 1313.3 2860.5 1315 2859.65 1316.7 2857.59 1317.39 2855.89 1316.54L2855.89 1316.53C2854.19 1315.68 2853.5 1313.62 2854.35 1311.92 2855.2 1310.22 2857.27 1309.54 2858.97 1310.39ZM2871.74 1313.77 2871.75 1313.78C2873.45 1314.63 2874.13 1316.69 2873.28 1318.39 2872.43 1320.09 2870.37 1320.78 2868.67 1319.92L2868.66 1319.92C2866.97 1319.07 2866.28 1317.01 2867.13 1315.31 2867.98 1313.61 2870.05 1312.92 2871.74 1313.77ZM2882.91 1317.11 2882.92 1317.11C2884.82 1317.11 2886.35 1318.65 2886.35 1320.54 2886.35 1322.44 2884.82 1323.98 2882.92 1323.98L2882.91 1323.98C2881.01 1323.98 2879.47 1322.44 2879.47 1320.54 2879.47 1318.65 2881.01 1317.11 2882.91 1317.11ZM2895.72 1321.11 2895.73 1321.11C2897.63 1321.11 2899.17 1322.65 2899.17 1324.54 2899.17 1326.44 2897.63 1327.98 2895.73 1327.98L2895.72 1327.98C2893.82 1327.98 2892.29 1326.44 2892.29 1324.54 2892.29 1322.65 2893.82 1321.11 2895.72 1321.11ZM2908.36 1325.11 2908.36 1325.11C2910.26 1325.11 2911.8 1326.65 2911.8 1328.54 2911.8 1330.44 2910.26 1331.98 2908.36 1331.98L2908.36 1331.98C2906.46 1331.98 2904.92 1330.44 2904.92 1328.54 2904.92 1326.65 2906.46 1325.11 2908.36 1325.11ZM2922.65 1329.73 2922.66 1329.73C2924.35 1330.58 2925.04 1332.65 2924.19 1334.34 2923.34 1336.04 2921.27 1336.73 2919.58 1335.88L2919.57 1335.87C2917.87 1335.02 2917.19 1332.96 2918.04 1331.26 2918.89 1329.56 2920.95 1328.88 2922.65 1329.73ZM2933.57 1334.11 2933.58 1334.11C2935.47 1334.11 2937.01 1335.65 2937.01 1337.54 2937.01 1339.44 2935.47 1340.98 2933.58 1340.98L2933.57 1340.98C2931.67 1340.98 2930.13 1339.44 2930.13 1337.54 2930.13 1335.65 2931.67 1334.11 2933.57 1334.11ZM2947.84 1338.82 2947.84 1338.82C2949.54 1339.67 2950.23 1341.74 2949.38 1343.44 2948.53 1345.14 2946.46 1345.82 2944.76 1344.97L2944.76 1344.97C2943.06 1344.12 2942.37 1342.05 2943.22 1340.36 2944.07 1338.66 2946.14 1337.97 2947.84 1338.82ZM2960.19 1344 2960.2 1344C2961.9 1344.85 2962.58 1346.92 2961.73 1348.62 2960.88 1350.31 2958.82 1351 2957.12 1350.15L2957.11 1350.15C2955.42 1349.3 2954.73 1347.23 2955.58 1345.53 2956.43 1343.84 2958.5 1343.15 2960.19 1344ZM2970.94 1349.11 2970.95 1349.11C2972.85 1349.11 2974.39 1350.65 2974.39 1352.54 2974.39 1354.44 2972.85 1355.98 2970.95 1355.98L2970.94 1355.98C2969.04 1355.98 2967.5 1354.44 2967.5 1352.54 2967.5 1350.65 2969.04 1349.11 2970.94 1349.11ZM2984.91 1354.36 2984.91 1354.36C2986.61 1355.21 2987.3 1357.27 2986.45 1358.97 2985.6 1360.67 2983.53 1361.36 2981.83 1360.51L2981.83 1360.5C2980.13 1359.65 2979.44 1357.59 2980.29 1355.89 2981.14 1354.19 2983.21 1353.51 2984.91 1354.36ZM2996.89 1360.35 2996.9 1360.35C2998.6 1361.2 2999.28 1363.27 2998.43 1364.96 2997.58 1366.66 2995.52 1367.35 2993.82 1366.5L2993.81 1366.5C2992.12 1365.65 2991.43 1363.58 2992.28 1361.88 2993.13 1360.19 2995.2 1359.5 2996.89 1360.35ZM3009.14 1365.97 3009.15 1365.98C3010.85 1366.83 3011.53 1368.89 3010.68 1370.59 3009.83 1372.29 3007.77 1372.97 3006.07 1372.12L3006.06 1372.12C3004.37 1371.27 3003.68 1369.21 3004.53 1367.51 3005.38 1365.81 3007.45 1365.12 3009.14 1365.97ZM3022.23 1372.31 3022.23 1372.32C3023.58 1373.66 3023.58 1375.84 3022.24 1377.18 3020.9 1378.52 3018.72 1378.53 3017.38 1377.19L3017.37 1377.18C3016.03 1375.84 3016.03 1373.66 3017.37 1372.32 3018.71 1370.98 3020.88 1370.97 3022.23 1372.31ZM3033.38 1377.59 3033.39 1377.6C3035.08 1378.45 3035.77 1380.51 3034.92 1382.21 3034.07 1383.91 3032 1384.59 3030.31 1383.74L3030.3 1383.74C3028.6 1382.89 3027.92 1380.82 3028.77 1379.13 3029.62 1377.43 3031.68 1376.74 3033.38 1377.59ZM3045.42 1384.11 3045.43 1384.12C3047.12 1384.97 3047.81 1387.03 3046.96 1388.73 3046.11 1390.43 3044.04 1391.11 3042.34 1390.26L3042.34 1390.26C3040.64 1389.41 3039.96 1387.34 3040.81 1385.64 3041.66 1383.95 3043.72 1383.26 3045.42 1384.11ZM3058.45 1390.53 3058.45 1390.54C3059.8 1391.88 3059.8 1394.05 3058.46 1395.4 3057.12 1396.74 3054.94 1396.74 3053.6 1395.4L3053.59 1395.4C3052.25 1394.06 3052.25 1391.88 3053.59 1390.54 3054.93 1389.19 3057.1 1389.19 3058.45 1390.53ZM3069.45 1396.63 3069.45 1396.63C3071.15 1397.48 3071.84 1399.55 3070.98 1401.24 3070.13 1402.94 3068.07 1403.63 3066.37 1402.77L3066.36 1402.77C3064.67 1401.92 3063.98 1399.85 3064.83 1398.16 3065.68 1396.46 3067.75 1395.77 3069.45 1396.63ZM3082.09 1404.18 3082.1 1404.18C3083.44 1405.52 3083.44 1407.7 3082.1 1409.04 3080.76 1410.39 3078.58 1410.39 3077.24 1409.05L3077.24 1409.04C3075.89 1407.7 3075.89 1405.52 3077.23 1404.18 3078.57 1402.84 3080.75 1402.83 3082.09 1404.18ZM3093 1410.4 3093 1410.4C3094.7 1411.26 3095.38 1413.32 3094.53 1415.02 3093.68 1416.71 3091.62 1417.4 3089.92 1416.55L3089.91 1416.55C3088.22 1415.69 3087.53 1413.63 3088.38 1411.93 3089.23 1410.23 3091.3 1409.55 3093 1410.4Z" fill="#4472C4" fill-rule="nonzero" fill-opacity="1"/></g><g clip-path="url(#clip7)"><text fill="#595959" fill-opacity="1" font-family="Calibri,Calibri_MSFontService,sans-serif" font-style="normal" font-variant="normal" font-weight="400" font-stretch="normal" font-size="41" text-anchor="start" direction="ltr" writing-mode="lr-tb" unicode-bidi="normal" text-decoration="none" transform="matrix(1 0 0 1 2870.37 1434)">R² = 0.4642</text></g><g clip-path="url(#clip8)"><text fill="#595959" fill-opacity="1" font-family="Calibri,Calibri_MSFontService,sans-serif" font-style="normal" font-variant="normal" font-weight="400" font-stretch="normal" font-size="41" text-anchor="start" direction="ltr" writing-mode="lr-tb" unicode-bidi="normal" text-decoration="none" transform="matrix(1 0 0 1 1746.52 1822)">0</text></g><g clip-path="url(#clip9)"><text fill="#595959" fill-opacity="1" font-family="Calibri,Calibri_MSFontService,sans-serif" font-style="normal" font-variant="normal" font-weight="400" font-stretch="normal" font-size="41" text-anchor="start" direction="ltr" writing-mode="lr-tb" unicode-bidi="normal" text-decoration="none" transform="matrix(1 0 0 1 1746.52 1765)">2</text></g><g clip-path="url(#clip10)"><text fill="#595959" fill-opacity="1" font-family="Calibri,Calibri_MSFontService,sans-serif" font-style="normal" font-variant="normal" font-weight="400" font-stretch="normal" font-size="41" text-anchor="start" direction="ltr" writing-mode="lr-tb" unicode-bidi="normal" text-decoration="none" transform="matrix(1 0 0 1 1746.52 1707)">4</text></g><g clip-path="url(#clip11)"><text fill="#595959" fill-opacity="1" font-family="Calibri,Calibri_MSFontService,sans-serif" font-style="normal" font-variant="normal" font-weight="400" font-stretch="normal" font-size="41" text-anchor="start" direction="ltr" writing-mode="lr-tb" unicode-bidi="normal" text-decoration="none" transform="matrix(1 0 0 1 1746.52 1650)">6</text></g><g clip-path="url(#clip12)"><text fill="#595959" fill-opacity="1" font-family="Calibri,Calibri_MSFontService,sans-serif" font-style="normal" font-variant="normal" font-weight="400" font-stretch="normal" font-size="41" text-anchor="start" direction="ltr" writing-mode="lr-tb" unicode-bidi="normal" text-decoration="none" transform="matrix(1 0 0 1 1746.52 1593)">8</text></g><g clip-path="url(#clip13)"><text fill="#595959" fill-opacity="1" font-family="Calibri,Calibri_MSFontService,sans-serif" font-style="normal" font-variant="normal" font-weight="400" font-stretch="normal" font-size="41" text-anchor="start" direction="ltr" writing-mode="lr-tb" unicode-bidi="normal" text-decoration="none" transform="matrix(1 0 0 1 1725.62 1535)">10</text></g><g clip-path="url(#clip14)"><text fill="#595959" fill-opacity="1" font-family="Calibri,Calibri_MSFontService,sans-serif" font-style="normal" font-variant="normal" font-weight="400" font-stretch="normal" font-size="41" text-anchor="start" direction="ltr" writing-mode="lr-tb" unicode-bidi="normal" text-decoration="none" transform="matrix(1 0 0 1 1725.62 1478)">12</text></g><g clip-path="url(#clip15)"><text fill="#595959" fill-opacity="1" font-family="Calibri,Calibri_MSFontService,sans-serif" font-style="normal" font-variant="normal" font-weight="400" font-stretch="normal" font-size="41" text-anchor="start" direction="ltr" writing-mode="lr-tb" unicode-bidi="normal" text-decoration="none" transform="matrix(1 0 0 1 1725.62 1421)">14</text></g><g clip-path="url(#clip16)"><text fill="#595959" fill-opacity="1" font-family="Calibri,Calibri_MSFontService,sans-serif" font-style="normal" font-variant="normal" font-weight="400" font-stretch="normal" font-size="41" text-anchor="start" direction="ltr" writing-mode="lr-tb" unicode-bidi="normal" text-decoration="none" transform="matrix(1 0 0 1 1725.62 1364)">16</text></g><g clip-path="url(#clip17)"><text fill="#595959" fill-opacity="1" font-family="Calibri,Calibri_MSFontService,sans-serif" font-style="normal" font-variant="normal" font-weight="400" font-stretch="normal" font-size="41" text-anchor="start" direction="ltr" writing-mode="lr-tb" unicode-bidi="normal" text-decoration="none" transform="matrix(1 0 0 1 1725.62 1306)">18</text></g><g clip-path="url(#clip18)"><text fill="#595959" fill-opacity="1" font-family="Calibri,Calibri_MSFontService,sans-serif" font-style="normal" font-variant="normal" font-weight="400" font-stretch="normal" font-size="41" text-anchor="start" direction="ltr" writing-mode="lr-tb" unicode-bidi="normal" text-decoration="none" transform="matrix(1 0 0 1 1725.62 1249)">20</text></g><g clip-path="url(#clip19)"><text fill="#595959" fill-opacity="1" font-family="Calibri,Calibri_MSFontService,sans-serif" font-style="normal" font-variant="normal" font-weight="400" font-stretch="normal" font-size="41" text-anchor="start" direction="ltr" writing-mode="lr-tb" unicode-bidi="normal" text-decoration="none" transform="matrix(1 0 0 1 1795.24 1877)">0</text></g><g clip-path="url(#clip20)"><text fill="#595959" fill-opacity="1" font-family="Calibri,Calibri_MSFontService,sans-serif" font-style="normal" font-variant="normal" font-weight="400" font-stretch="normal" font-size="41" text-anchor="start" direction="ltr" writing-mode="lr-tb" unicode-bidi="normal" text-decoration="none" transform="matrix(1 0 0 1 2001.34 1877)">10</text></g><g clip-path="url(#clip21)"><text fill="#595959" fill-opacity="1" font-family="Calibri,Calibri_MSFontService,sans-serif" font-style="normal" font-variant="normal" font-weight="400" font-stretch="normal" font-size="41" text-anchor="start" direction="ltr" writing-mode="lr-tb" unicode-bidi="normal" text-decoration="none" transform="matrix(1 0 0 1 2217.88 1877)">20</text></g><g clip-path="url(#clip22)"><text fill="#595959" fill-opacity="1" font-family="Calibri,Calibri_MSFontService,sans-serif" font-style="normal" font-variant="normal" font-weight="400" font-stretch="normal" font-size="41" text-anchor="start" direction="ltr" writing-mode="lr-tb" unicode-bidi="normal" text-decoration="none" transform="matrix(1 0 0 1 2434.42 1877)">30</text></g><g clip-path="url(#clip23)"><text fill="#595959" fill-opacity="1" font-family="Calibri,Calibri_MSFontService,sans-serif" font-style="normal" font-variant="normal" font-weight="400" font-stretch="normal" font-size="41" text-anchor="start" direction="ltr" writing-mode="lr-tb" unicode-bidi="normal" text-decoration="none" transform="matrix(1 0 0 1 2650.97 1877)">40</text></g><g clip-path="url(#clip24)"><text fill="#595959" fill-opacity="1" font-family="Calibri,Calibri_MSFontService,sans-serif" font-style="normal" font-variant="normal" font-weight="400" font-stretch="normal" font-size="41" text-anchor="start" direction="ltr" writing-mode="lr-tb" unicode-bidi="normal" text-decoration="none" transform="matrix(1 0 0 1 2867.51 1877)">50</text></g><g clip-path="url(#clip25)"><text fill="#595959" fill-opacity="1" font-family="Calibri,Calibri_MSFontService,sans-serif" font-style="normal" font-variant="normal" font-weight="400" font-stretch="normal" font-size="41" text-anchor="start" direction="ltr" writing-mode="lr-tb" unicode-bidi="normal" text-decoration="none" transform="matrix(1 0 0 1 3084.05 1877)">60</text></g><g clip-path="url(#clip26)"><text fill="#595959" fill-opacity="1" font-family="Calibri,Calibri_MSFontService,sans-serif" font-style="normal" font-variant="normal" font-weight="400" font-stretch="normal" font-size="41" text-anchor="start" direction="ltr" writing-mode="lr-tb" unicode-bidi="normal" text-decoration="none" transform="matrix(1 0 0 1 3300.6 1877)">70</text></g><g clip-path="url(#clip27)"><text fill="#595959" fill-opacity="1" font-family="Calibri,Calibri_MSFontService,sans-serif" font-style="normal" font-variant="normal" font-weight="400" font-stretch="normal" font-size="64" text-anchor="start" direction="ltr" writing-mode="lr-tb" unicode-bidi="normal" text-decoration="none" transform="matrix(1 0 0 1 2233.8 1164)">Angle/∆x of Each Throw</text></g><rect x="1696.5" y="1069.5" width="1697" height="849" stroke="#D9D9D9" stroke-width="3.4375" stroke-linecap="butt" stroke-linejoin="round" stroke-miterlimit="10" stroke-opacity="1" fill="none"/></g></svg>